# xmcd
#
# Track frame offsets:
#	150
#	19159
#	35397
#	49568
#	66984
#	83900
#	100612
#	116394
#	131167
#	147215
#	160679
#	177836
#	193336
#	208058
#	224044
#	240566
#	259890
#	275919
#	292193
#	306513
#
# Disc length: 4313 seconds
#
# Revision: 0
# Processed by: cddbd v1.5.1PL0 Copyright (c) Steve Scherf et al.
# Submitted via: EasyCDDAExtractor 8.1.2.3
#
DISCID=3b10d714
DTITLE=Various Artist - Bierkoenig 2005 (Die Dritte) CD 2
DYEAR=2005
DGENRE=Country
TTITLE0=Mickie Krause - Alle Total Versaut
TTITLE1=Jürgen Drews - Kornfeld 2005 (Remix)
TTITLE2=Jürgen - Natascha Vor'm Pascha
TTITLE3=Partynator Peter Wacekl - Ladioo
TTITLE4=Schnitte - Freibier
TTITLE5=Leo Colonia Feat. Mickey M. - Tortellini Al Forno (German Mix)
TTITLE6=Partynator - Agadou
TTITLE7=Almklausi - Oh Wie Verfuehrerisch (RMX 2005)
TTITLE8=Strandgeier Feat. Hagen Western Ohne Müller - Ragazza
TTITLE9=Die Paparazzis - Die Hände Zum Himmel
TTITLE10=Paraplues - Über Köln Da Lacht Die Sonne
TTITLE11=Die Paparazzis - Die Rose
TTITLE12=Der Letze Schrei - Amarillo
TTITLE13=Andreas Martin - Wir Leben Nur Einmal
TTITLE14=Roland Brüggen - Wahnsinn (Hölle, Hölle)
TTITLE15=Alpenparty Boys - Hey Amigo Charly
TTITLE16=Michael Wendler - Sie Liebt Den DJ (Radio-Kult-Mix)
TTITLE17=V.I.P. - Paris Nur So Zum Spass
TTITLE18=Die Strolche - Wenn Der Sommer Kommt
TTITLE19=DJ Franky - Abanda
EXTD=
EXTT0=
EXTT1=
EXTT2=
EXTT3=
EXTT4=
EXTT5=
EXTT6=
EXTT7=
EXTT8=
EXTT9=
EXTT10=
EXTT11=
EXTT12=
EXTT13=
EXTT14=
EXTT15=
EXTT16=
EXTT17=
EXTT18=
EXTT19=
PLAYORDER=
